<?xml version="1.0" standalone="no"?>
<!DOCTYPE svg PUBLIC "-//W3C//DTD SVG 20010904//EN"
 "http://www.w3.org/TR/2001/REC-SVG-20010904/DTD/svg10.dtd">
<svg version="1.0" xmlns="http://www.w3.org/2000/svg"
 width="218.000000pt" height="218.000000pt" viewBox="0 0 218.000000 218.000000"
 preserveAspectRatio="xMidYMid meet">
<metadata>
Created by potrace 1.11, written by Peter Selinger 2001-2013
</metadata>
<g transform="translate(0.000000,218.000000) scale(0.100000,-0.100000)"
fill="#000000" stroke="none">
<path d="M550 2160 c0 -11 -7 -20 -15 -20 -8 0 -15 -2 -15 -4 0 -2 -3 -11 -6
-20 -4 -11 -1 -14 13 -11 18 3 20 -3 22 -57 2 -51 0 -60 -13 -55 -9 4 -16 2
-16 -3 0 -6 -10 -10 -22 -10 -12 0 -18 -3 -15 -7 4 -3 -1 -12 -10 -18 -9 -7
-18 -25 -20 -41 -3 -16 -10 -32 -16 -36 -9 -6 -9 -8 1 -8 6 0 12 -5 12 -11 0
-5 -6 -7 -12 -3 -10 6 -10 4 -2 -7 14 -17 15 -50 2 -66 -5 -7 -7 -17 -3 -23 4
-6 1 -9 -7 -8 -7 2 -12 -3 -10 -9 1 -7 -2 -13 -8 -13 -5 0 -10 -7 -10 -15 0
-8 -5 -15 -11 -15 -5 0 -7 -5 -4 -10 3 -6 -1 -13 -9 -16 -9 -3 -13 -10 -10
-15 3 -5 0 -9 -5 -9 -6 0 -11 -7 -11 -15 0 -7 -8 -19 -17 -24 -10 -6 -14 -11
-10 -11 4 0 -6 -20 -23 -45 -17 -25 -28 -45 -24 -45 4 0 -1 -6 -12 -14 -10 -8
-16 -18 -12 -22 13 -12 -50 -51 -77 -48 -14 1 -25 -2 -25 -8 0 -5 -6 -8 -12
-5 -21 7 -51 -13 -39 -27 6 -7 6 -17 1 -26 -6 -9 -2 -19 11 -31 19 -16 20 -33
19 -564 0 -300 3 -544 7 -542 5 3 19 -1 33 -9 14 -7 21 -14 15 -14 -5 0 9 -10
32 -20 23 -11 45 -25 48 -30 4 -6 11 -8 16 -5 5 4 9 3 9 -2 0 -4 13 -14 28
-21 16 -6 37 -20 48 -30 11 -9 26 -18 33 -20 7 -1 20 -9 28 -17 8 -9 19 -13
24 -10 5 4 9 1 9 -4 0 -6 6 -11 14 -11 8 0 16 -7 20 -15 4 -11 17 -14 53 -10
56 5 356 43 393 50 14 3 51 7 83 10 32 4 66 8 76 10 10 2 42 6 72 10 30 3 68
9 84 11 29 5 78 10 195 18 30 2 62 7 70 10 8 3 29 7 45 10 17 3 41 7 55 10 14
3 45 7 70 10 100 11 146 17 175 21 17 2 55 6 85 10 107 12 102 9 100 73 -1 31
-1 62 0 67 1 6 2 36 1 69 -1 45 3 62 16 72 17 13 17 14 -2 8 l-20 -5 20 13
c20 13 35 45 15 33 -5 -3 -10 1 -10 10 0 8 -17 23 -37 33 -21 9 -44 24 -51 32
-12 13 -13 13 -6 0 6 -11 2 -10 -13 3 -11 9 -23 14 -26 11 -4 -4 -9 1 -13 10
-3 9 -10 14 -14 11 -5 -3 -12 0 -16 7 -11 17 -11 58 -1 58 4 0 6 4 3 9 -4 5 4
7 16 4 19 -4 20 -3 8 6 -8 6 -10 11 -4 11 18 0 9 40 -13 55 -11 8 -23 11 -27
8 -3 -3 -6 2 -6 11 0 12 -5 16 -14 13 -8 -3 -20 1 -26 9 -7 8 -19 14 -26 14
-8 0 -14 4 -14 9 0 5 -13 14 -30 21 -16 7 -30 17 -30 22 0 5 -4 7 -9 3 -5 -3
-16 1 -24 9 -8 8 -17 12 -21 9 -3 -4 -6 -2 -6 4 0 6 -11 14 -25 17 -14 4 -23
11 -20 16 3 6 -6 10 -20 10 -15 0 -24 4 -20 10 3 5 -1 10 -9 10 -9 0 -16 5
-16 12 0 6 -3 8 -6 5 -4 -4 -19 2 -34 13 -15 11 -29 17 -32 15 -7 -7 -2 91 6
103 4 7 14 12 22 12 8 0 14 4 14 10 0 14 -39 32 -53 24 -9 -6 -9 -4 -1 7 17
20 -6 42 -24 22 -7 -7 -9 -13 -5 -13 4 0 -1 -7 -11 -15 -20 -15 -33 -50 -15
-39 5 3 9 0 9 -5 0 -6 6 -11 13 -11 18 0 10 -57 -9 -64 -8 -3 -23 3 -32 12
-10 10 -28 18 -40 17 -12 -1 -24 5 -27 12 -2 8 -9 11 -15 8 -5 -3 -10 0 -10 7
0 11 -2 10 -9 0 -6 -11 -10 -10 -15 3 -3 10 -12 15 -21 11 -8 -3 -15 -1 -15 4
0 6 -9 10 -20 10 -11 0 -20 5 -20 11 0 6 -7 9 -15 6 -8 -4 -17 -1 -21 5 -5 7
-2 8 6 3 8 -5 11 -4 7 3 -4 5 -16 8 -27 5 -12 -3 -22 1 -26 10 -3 9 -12 13
-19 11 -7 -3 -16 0 -20 5 -3 6 -11 9 -16 6 -5 -4 -9 1 -9 10 0 9 9 19 19 22
20 5 22 18 7 42 -6 10 -5 12 2 7 7 -4 12 -2 12 3 0 10 -7 13 -26 10 -4 0 -10
3 -13 8 -12 16 -51 34 -51 22 0 -6 -7 -3 -16 5 -8 9 -20 16 -25 16 -5 0 -9 9
-9 21 0 11 -4 17 -10 14 -5 -3 -10 1 -10 9 0 9 -5 16 -11 16 -6 0 -8 7 -5 17
4 10 4 14 0 10 -9 -9 -45 44 -38 55 3 5 1 7 -6 6 -6 -2 -18 11 -28 27 -9 17
-19 32 -22 35 -11 10 -40 60 -39 66 0 4 -6 11 -15 16 -9 5 -16 14 -16 21 0 7
-11 24 -24 39 -14 14 -22 29 -19 32 4 3 1 6 -6 6 -7 0 -9 5 -6 10 3 6 0 10 -8
10 -12 0 -14 15 -13 70 1 39 -2 70 -6 70 -4 0 -5 9 -3 20 2 13 -2 20 -11 20
-8 0 -14 9 -14 22 0 12 -3 18 -6 15 -4 -4 -20 1 -35 10 -26 16 -29 23 -29 70
0 49 5 57 30 55 3 0 7 8 7 19 1 11 -2 17 -8 14 -5 -4 -9 -1 -9 5 0 6 -4 8 -10
5 -9 -6 -14 8 -11 28 0 4 -8 7 -19 7 -13 0 -20 -7 -20 -20z m2 -301 c1 -33 2
-64 0 -69 -8 -22 -20 -8 -25 28 -2 20 -9 52 -15 70 -6 18 -7 30 -1 27 5 -4 9
-2 9 4 0 6 6 8 14 5 10 -4 15 -25 18 -65z m68 56 c0 6 4 4 9 -4 6 -9 5 -25 -1
-40 -5 -14 -10 -28 -10 -31 -4 -24 -12 -40 -17 -40 -16 0 -19 13 -11 41 5 17
5 31 -1 35 -5 3 -6 11 -2 17 4 7 8 15 9 20 1 4 2 10 3 15 1 4 6 0 11 -8 5 -8
10 -10 10 -5z"/>
</g>
</svg>
