<?xml version="1.0" encoding="utf-8"?>
<!-- Generator: Adobe Illustrator 26.5.3, SVG Export Plug-In . SVG Version: 6.00 Build 0)  -->
<svg version="1.1" id="Layer_1" xmlns="http://www.w3.org/2000/svg" xmlns:xlink="http://www.w3.org/1999/xlink" x="0px" y="0px"
	 viewBox="0 0 512 512" style="enable-background:new 0 0 512 512;" xml:space="preserve">
<style type="text/css">
	.st0{fill:#FFFFFF;}
	.st1{fill:#FFB600;}
	.st2{fill:#A32035;}
</style>
<rect x="0" y="0" class="st0" width="512" height="512"/>
<g>
	<g>
		<path class="st1" d="M205.63,99.99c16.59-1.5,33.39-2.29,50.37-2.33c48.48,0.12,95.52,6.31,140.41,17.84c0,0,0,118.95,0,183.72
			c-5.55-0.69-13.17-1.69-22.71-2.77l0.01-14.4l8.61-0.8v-5.36l-32.49-28.77v-14.21l15.39-1.43v-6.58l-61.97-53.44v-11.52l5.56,1.11
			v-4.01l-5.56-1.14v-5.39l-4.27-0.91v5.42l-5.56-1.14v4.08l5.56,1.11v13.3l-54.7,10.88v-28.15l5.8-5.41l-14.05-4.46
			c0,0-30.41-35.89-30.41-35.89L205.63,99.99z M181.22,109.32l-30.4,35.93l-14.21,4.51l5.95,5.55V296
			c-12.4,1.34-21.64,2.55-26.98,3.22c0-69.99,0-69.99,0-183.72c21.42-5.5,43.32-9.79,65.64-12.78L181.22,109.32z"/>
		<path class="st2" d="M215.23,206.41l8.67,1.56v26.05l-8.67-1.14V206.41z M209.16,150.47c-1.51-0.41-2.84,0-3.64,0.94
			c1.77,1.05,3.07,3.04,3.07,5v19.24l4.98,1.18l0-20.77C213.57,153.63,211.6,151.13,209.16,150.47z M229.49,156.3
			c-1.51-0.41-2.84,0-3.64,0.94c1.77,1.05,3.07,3.04,3.07,5v18.24l4.98,1.18l0-19.77C233.9,159.47,231.93,156.96,229.49,156.3z
			 M405.26,108.64v194.91c0,42.63-29.8,103.31-149.26,147.54c-119.46-44.23-149.26-104.91-149.26-147.54V108.64
			c24.48-6.55,49.37-11.5,74.48-14.82v0l0-9.09c0-6.06,4.41-10.97,9.91-11.95l0.01-13.21l-5.95-1.19V54l5.95,1.22v-5.8l4.57,0.97
			v5.77l5.95,1.22v4.29l-5.95-1.19V72.8c5.66,1.08,9.92,5.88,9.92,11.92l0,6.39l0,0c16.73-1.5,33.54-2.27,50.37-2.29
			C306.43,88.9,356.64,95.65,405.26,108.64z M181.22,109.32l0-6.59c-22.32,2.99-44.22,7.28-65.64,12.78l0,183.72
			c5.34-0.67,14.58-1.89,26.98-3.22V155.31l-5.95-5.55l14.21-4.51L181.22,109.32z M396.41,115.5
			C351.52,103.97,304.48,97.78,256,97.66c-16.97,0.04-33.77,0.83-50.37,2.33l0,9.37l30.41,35.89l14.05,4.46l-5.8,5.41l-50.89-15.08
			v0v176.87l16.57-0.44v-36.28l20.83,0.73v34.99l55.88-1.5v-36.46c0-8,6.48-13.8,14.48-13.8c8.6,0,14.48,7.17,14.48,15.18
			c0,0,0,0.01,0,0.01l0.01,0v34.3l37.83-1.02v-26.76l12.08,0.42v26.02l8.12-0.22v-15.62c9.53,1.08,17.15,2.08,22.71,2.77V115.5z
			 M349.84,257.78l23.87,21.15l0.01,3.12l8.61-0.8v-5.36l-32.49-28.77V257.78z M301.13,203.37c-1.79-0.48-3.36,0-4.3,1.11
			c2.1,1.24,3.62,3.6,3.62,5.92v20.39l5.89,0.95l0-21.76C306.35,207.11,304.01,204.15,301.13,203.37z M303.27,171.46v-11.52
			l5.56,1.11v-4.01l-5.56-1.14v-5.39l-4.27-0.91v5.42l-5.56-1.14v4.08l5.56,1.11v13.3l-54.7,10.88v27.91l58.27-23.24l47.27,41.86
			v3.12l15.39-1.43v-6.58L303.27,171.46z"/>
		<path class="st0" d="M222.26,379.61v1.75h-16.63v-1.75c4.88-0.24,5.21-0.76,5.21-4.17v-17.15c0-2.41-0.85-2.6-2.79-2.84
			l-1.42-0.24v-1.56c3.65-0.43,7.72-1.38,10.51-2.37v24.16C217.15,378.94,217.43,379.37,222.26,379.61z M251.63,372.88
			c0,6.02-6.02,9.05-10.65,9.05c-6.35,0-10.32-3.22-10.32-8c0-2.27,1.09-3.51,2.03-4.31c0.95-0.71,2.94-1.89,4.31-2.7
			c-2.75-1.56-5.16-3.88-5.16-7.39c0-4.5,3.98-8.24,9.76-8.24c5.26,0,8.76,3.13,8.76,7.34c0,1.33-0.47,2.61-1.56,3.65
			c-0.76,0.66-1.75,1.32-3.51,2.46C248.64,366.53,251.63,368.76,251.63,372.88z M237.33,357.39c0,3.13,2.37,4.69,6.16,6.39
			c1.09-0.99,1.75-2.37,1.75-5.02c0-4.17-2.41-5.49-4.31-5.49C238.61,353.27,237.33,355.02,237.33,357.39z M245.81,375.2
			c-0.05-3.31-2.23-4.93-6.97-7.34c-1.42,1.04-2.51,3.03-2.51,5.49c0,4.5,2.61,6.59,5.26,6.59
			C244.24,379.94,245.85,378.28,245.81,375.2z M301.25,375.44v-24.16c-2.79,0.99-6.87,1.94-10.51,2.37v1.56l1.42,0.24
			c1.94,0.24,2.79,0.43,2.79,2.84v17.15c0,3.41-0.33,3.93-5.21,4.17v1.75h16.63v-1.75C301.53,379.37,301.25,378.94,301.25,375.44z
			 M271.23,362.65c-1.28,0-3.93,0.61-6.3,1.47c0.47-1.94,1.09-5.06,1.52-7.1h11.79l1.52-4.69l-0.28-0.47h-14.54
			c-0.66,4.41-1.8,10.47-2.75,14.78l0.24,0.28c1.23-0.33,2.79-0.8,4.93-0.8c4.36,0,7.1,2.79,7.1,7.06c0,3.41-1.37,6.02-4.31,6.02
			c-3.03,0-5.07-1.94-6.2-2.94c-0.67-0.61-1.28-0.66-1.85-0.28c-0.85,0.61-1.47,1.75-1.47,2.51c0,0.66,0.19,1.13,1.18,1.9
			c1.09,0.9,3.13,1.56,5.02,1.56c2.84,0,6.35-1.23,9-3.13c3.36-2.37,4.73-5.26,4.73-8.2C280.56,366.53,277.34,362.65,271.23,362.65z
			 M373.71,278.91v33.16l-8.12,0.22v-26.02l-12.08-0.42v26.76l-37.83,1.02v-34.3l-0.01,0c0,0,0-0.01,0-0.01
			c0-8-5.93-15.18-14.48-15.18c-8.01,0-14.48,5.8-14.48,13.8v36.46l-55.88,1.5v-34.99l-20.83-0.73v36.28l-16.57,0.45V140.04
			l50.89,15.08v56.06l58.27-23.24l47.27,41.86v28L373.71,278.91z M213.57,156.07c0-2.44-1.98-4.94-4.41-5.6
			c-1.51-0.41-2.84,0-3.64,0.94c1.77,1.05,3.07,3.04,3.07,5v19.24l4.98,1.18L213.57,156.07z M223.9,207.99l-8.67-1.58v26.47
			l8.67,1.13V207.99z M233.9,161.9c0-2.44-1.98-4.94-4.41-5.6c-1.51-0.41-2.84,0-3.64,0.94c1.77,1.05,3.07,3.04,3.07,5v18.24
			l4.98,1.18L233.9,161.9z M306.35,209.99c0-2.88-2.34-5.84-5.22-6.62c-1.79-0.48-3.36,0-4.3,1.11c2.1,1.24,3.62,3.6,3.62,5.92
			v20.39l5.89,0.95L306.35,209.99z M177.39,150.58c-2.44,0.66-4.41,3.16-4.41,5.6l0,20.77l4.98-1.18v-19.24c0-1.96,1.29-3.96,3.07-5
			C180.23,150.58,178.9,150.17,177.39,150.58z M201.06,88.41c-1.44,0.33-3.23,0.54-5.35,0.62v16.03c2.12,0.09,3.91,0.29,5.35,0.62
			V88.41z M185.79,105.68c1.44-0.33,3.23-0.54,5.35-0.62V89.03c-2.12-0.09-3.91-0.29-5.35-0.62V105.68z M157.06,156.41
			c-2.44,0.66-4.41,3.16-4.41,5.6l0,19.77l4.98-1.18v-18.24c0-1.96,1.29-3.96,3.07-5C159.9,156.41,158.57,156.01,157.06,156.41z"/>
	</g>
</g>
</svg>
