<?xml version="1.0" standalone="no"?>
<!DOCTYPE svg PUBLIC "-//W3C//DTD SVG 20010904//EN"
 "http://www.w3.org/TR/2001/REC-SVG-20010904/DTD/svg10.dtd">
<svg version="1.0" xmlns="http://www.w3.org/2000/svg"
 width="260.000000pt" height="260.000000pt" viewBox="0 0 260.000000 260.000000"
 preserveAspectRatio="xMidYMid meet">
<metadata>
Created by potrace 1.11, written by Peter Selinger 2001-2013
</metadata>
<g transform="translate(0.000000,260.000000) scale(0.100000,-0.100000)"
fill="#000000" stroke="none">
<path d="M670 2570 c0 -20 -5 -30 -15 -30 -10 0 -15 -10 -15 -30 0 -20 5 -30
15 -30 11 0 15 -13 15 -54 0 -48 -3 -55 -22 -61 -36 -11 -77 -56 -88 -94 -5
-20 -10 -62 -10 -93 0 -55 -4 -62 -123 -255 l-122 -198 -75 -15 -75 -16 -3
-39 c-2 -27 1 -41 12 -47 14 -8 16 -77 16 -641 l0 -632 238 -143 237 -142 3
660 2 659 33 6 c109 19 483 75 499 75 17 0 18 -17 18 -350 0 -192 3 -350 8
-350 4 0 121 90 261 200 140 110 258 200 263 200 5 0 101 -54 214 -121 l204
-121 0 -92 0 -91 90 -42 90 -41 0 -181 0 -181 24 0 c56 0 56 0 56 166 0 130 2
154 15 154 11 0 15 11 15 39 l0 40 -110 57 c-110 58 -110 58 -110 95 0 32 3
36 20 32 18 -5 20 0 20 38 l0 44 -255 150 -255 149 0 58 c0 45 3 58 15 58 9 0
15 9 15 25 0 16 -6 25 -15 25 -10 0 -15 10 -15 30 0 25 -4 30 -25 30 -21 0
-25 -5 -25 -30 0 -20 -5 -30 -15 -30 -10 0 -15 -10 -15 -30 0 -20 5 -30 15
-30 11 0 15 -11 15 -39 l0 -40 -37 16 c-212 87 -370 156 -378 164 -7 7 -4 14
8 20 11 7 17 22 17 47 0 36 -1 38 -68 65 l-69 28 -167 247 -166 247 0 68 c0
37 -6 82 -14 100 -14 36 -69 87 -92 87 -10 0 -14 15 -14 59 0 50 3 59 20 64
15 4 20 14 20 36 0 24 -4 31 -20 31 -15 0 -20 7 -20 25 0 21 -5 25 -30 25 -27
0 -30 -3 -30 -30z m0 -365 c0 -69 -3 -85 -15 -85 -12 0 -15 15 -15 73 0 62 10
97 27 97 2 0 3 -38 3 -85z m90 -21 c0 -43 -4 -74 -10 -74 -6 0 -10 34 -10 81
0 51 4 78 10 74 6 -3 10 -40 10 -81z m-430 -907 c0 -75 -3 -98 -12 -95 -9 3
-14 38 -16 119 -2 103 -1 112 12 94 11 -15 15 -47 16 -118z m190 -89 c0 -83
-2 -96 -15 -92 -12 5 -15 28 -15 117 0 100 1 109 15 91 10 -13 14 -47 15 -116z"/>
<path d="M1019 1312 c-21 -18 -22 -20 -6 -43 13 -18 17 -46 17 -116 l0 -93 30
0 30 0 0 123 c0 148 -14 174 -71 129z"/>
<path d="M809 1279 c-19 -19 -19 -22 -5 -38 12 -13 16 -40 16 -114 0 -89 2
-97 19 -97 49 0 51 6 51 125 0 90 -3 117 -16 129 -21 22 -40 20 -65 -5z"/>
<path d="M1716 1034 c-18 -17 -21 -44 -6 -44 6 0 10 -27 10 -61 l0 -60 33 3
32 3 3 73 c3 78 -6 102 -39 102 -9 0 -25 -7 -33 -16z"/>
<path d="M1679 586 c-62 -42 -74 -80 -77 -253 -3 -119 -1 -153 9 -153 7 0 71
8 141 17 l128 17 0 153 c0 164 -7 196 -52 227 -35 25 -107 20 -149 -8z"/>
<path d="M2169 504 c-10 -12 -10 -20 -1 -35 7 -11 12 -58 12 -114 l0 -95 35 0
35 0 0 114 c0 63 -3 121 -6 130 -8 21 -58 21 -75 0z"/>
<path d="M938 407 c-63 -9 -68 -11 -68 -35 0 -24 1 -25 55 -19 l55 6 0 -132 0
-133 40 4 40 4 0 159 0 159 -27 -1 c-16 -1 -58 -6 -95 -12z"/>
</g>
</svg>
